<?xml version="1.0" encoding="UTF-8"?>
<svg id="Layer_2" data-name="Layer 2" xmlns="http://www.w3.org/2000/svg" viewBox="0 0 172.75 183.52">
  <defs>
    <style>
      .cls-1 {
        fill: #fff;
        stroke-width: 0px;
      }
    </style>
  </defs>
  <g id="Layer_1-2" data-name="Layer 1">
    <g>
      <g>
        <polygon class="cls-1" points="167.44 143.11 167.44 178.19 140.44 143.11 125.18 143.11 121.09 143.11 109.25 143.11 109.25 170.2 125.18 170.2 125.18 148.42 152.18 183.52 167.44 183.52 171.53 183.52 172.75 183.52 172.75 143.11 167.44 143.11"/>
        <polygon class="cls-1" points="70.61 143.11 40.41 143.11 40.41 143.11 21.05 143.11 0 143.11 0 148.42 25.14 148.42 41.9 170.2 61.25 170.2 44.5 148.42 42.45 145.75 70.61 145.75 70.61 148.42 65.29 148.42 65.29 170.2 70.61 170.2 70.61 170.2 105.22 170.2 105.22 159.78 70.61 159.78 70.61 156.65 105.22 156.65 105.22 151.34 70.73 151.34 70.73 148.42 105.22 148.42 105.22 143.11 71.5 143.11 70.61 143.11"/>
      </g>
      <g>
        <polygon class="cls-1" points="83.91 37.18 83.91 31.24 63.26 31.24 69.19 37.18 83.91 37.18"/>
        <polygon class="cls-1" points="90.76 123.28 96.7 123.28 96.7 70.65 90.82 76.54 90.76 123.28"/>
        <polygon class="cls-1" points="105.77 114.23 111.7 108.29 111.7 63.47 105.77 63.47 105.77 114.23"/>
        <polygon class="cls-1" points="120.77 99.25 126.71 93.29 126.71 74.59 120.77 68.66 120.77 99.25"/>
        <polygon class="cls-1" points="126.71 66.12 118.08 49.1 98.11 49.1 75.76 71.45 75.76 108.28 81.69 114.22 81.69 73.91 100.57 55.03 115.61 55.03 126.71 66.12"/>
        <polygon class="cls-1" points="75.52 49.1 60.75 63.87 60.75 93.34 66.73 99.25 66.73 66.25 83.91 49.1 75.52 49.1"/>
        <polygon class="cls-1" points="51.68 84.21 51.68 72.94 46.05 78.57 51.68 84.21"/>
        <polygon class="cls-1" points="62.51 18.29 90.23 25.12 103.31 38.58 103.31 38.58 100.3 41.59 108.72 41.52 111.7 38.58 99.07 25.57 109.13 15.51 93.62 0 52.09 0 64.11 12.01 56.23 12.01 62.51 18.29"/>
      </g>
    </g>
  </g>
</svg>